<svg width="63" height="63" viewBox="0 0 63 63" fill="none" xmlns="http://www.w3.org/2000/svg">
<ellipse cx="31.5" cy="31.0944" rx="31.5" ry="31.0944" fill="#E384FF" fill-opacity="0.9"/>
<ellipse cx="31.5625" cy="31.2076" rx="27.5625" ry="27.2076" fill="#513973" fill-opacity="0.8"/>
<ellipse cx="31.625" cy="31.3208" rx="23.625" ry="23.3208" fill="#0F0F0F"/>
<path d="M28.3076 21.9053C28.335 21.9321 28.3624 21.9589 28.3898 21.9857C28.3624 21.9599 28.335 21.9331 28.3076 21.9053Z" fill="#CCC2C2"/>
<path d="M27.9303 20.0628C27.8208 20.089 28.0672 20.0094 27.9303 20.0628V20.0628Z" fill="#CCC2C2"/>
<path d="M47.6335 35.6914C48.0114 35.9056 45.879 37.7758 45.6901 37.9357C44.8263 38.7371 44.1515 39.4852 42.8029 39.1378C43.0189 37.4018 43.2078 36.0388 42.1811 34.5436C41.8032 33.982 41.8561 33.3682 41.4793 32.7799C40.9384 31.9775 40.5345 31.1772 40.0487 30.3481C39.3739 29.1726 37.7543 27.9972 37.4034 26.7418C36.9985 25.3522 36.0818 24.0958 35.5139 22.7605C36.3237 21.7992 37.3224 21.3442 36.3507 20.3829C35.8939 19.9289 35.623 19.4217 35.0561 19.0476C34.5692 18.7002 33.6795 18.6736 33.1127 18.3528C32.3029 17.8988 30.5754 17.7656 29.9546 18.6736C29.3337 19.6082 28.2271 19.1009 27.5533 19.7681C27.7962 19.6615 27.5533 19.7414 27.8772 19.6615C27.8772 19.6615 28.1471 19.849 28.0931 20.0632C27.9852 20.0089 27.7152 20.1165 27.6073 20.1431L27.4453 19.9023C27.4453 20.6771 27.8502 21.4795 28.3361 22.0667C28.7949 21.8259 29.5507 22.1733 29.9556 22.4141C30.5494 22.7615 31.1703 21.8802 31.7101 22.4141C31.2512 22.948 29.2268 22.9747 28.471 23.0013C28.633 23.7494 30.6304 23.4286 31.2512 24.1235C31.3322 25.7262 30.7654 26.7951 30.5494 28.3446C30.3065 30.1349 31.3592 31.3903 31.6831 33.0474C32.115 35.1841 31.6561 37.2153 31.6831 39.351C31.7101 40.7406 31.1163 40.6607 30.3065 41.5953C29.3088 42.7174 31.5751 42.7707 32.115 42.1292C32.9787 41.1146 32.5739 40.3655 33.0597 39.271C33.3027 38.7894 33.2217 38.1489 33.3027 37.615C33.3836 36.999 33.7896 36.5194 33.8435 35.8779C33.8695 36.4395 34.4363 36.8402 34.2744 37.3741C34.1135 38.0689 33.8435 38.6029 33.8165 39.2977C33.7356 40.8748 33.1687 41.8628 32.6559 43.2514C32.278 44.2669 33.8975 43.8129 34.3294 43.7053C35.3551 43.4912 34.6253 42.6908 34.8962 41.9693C35.0042 41.6486 36.1649 38.6029 36.1919 38.6029C36.4888 38.816 36.3808 39.7527 36.5687 40.0724C36.7307 40.4465 35.8129 40.6883 35.597 40.7406L35.2201 41.9693C36.2998 41.6486 37.5145 41.088 38.6471 41.3012C37.6765 42.2624 37.5685 43.0116 39.106 43.0116C40.0507 43.0116 41.9942 41.8884 42.1831 40.9281C42.1831 40.9281 43.9906 40.9015 44.1806 40.8748C44.9903 40.7139 45.3412 40.6063 45.8012 39.9126C46.2029 39.2721 48.9831 36.4938 47.6335 35.6914ZM31.7091 19.5826C30.0085 19.6092 31.5201 18.4338 32.034 19.5826H31.7091ZM34.0834 22.9214C33.8134 22.3342 32.9777 19.2352 33.6785 19.0743C33.3006 19.2075 33.7044 23.3754 34.9201 23.3487C34.6782 23.4563 34.2723 23.3487 34.0834 22.9214C34.2723 23.3487 33.8415 22.4141 34.0834 22.9214Z" fill="#CCC2C2"/>
<path d="M29.5491 26.3941C29.5491 26.2609 29.5222 25.6993 29.3602 25.4585C29.4142 25.5917 29.2792 25.8326 29.2792 25.8326C28.5504 26.1789 29.0363 25.2443 29.2792 25.3786C28.9823 25.1377 28.4964 25.2443 28.2265 25.0035C27.9296 24.737 27.8216 24.4962 27.4167 24.4429C27.2548 24.4163 26.8229 24.4163 26.7689 24.2298C26.688 23.9633 26.472 23.6692 26.2831 23.455C26.1481 23.2675 26.1481 23.0543 26.1211 22.8135C26.0941 22.7602 26.0671 22.2529 25.9322 22.4394C25.6083 22.8401 25.5813 23.5616 25.5003 24.0422C25.4733 24.2021 25.4733 24.4163 25.3923 24.5761C25.2844 24.7627 24.9604 25.191 24.7715 24.9768C24.5286 24.737 24.2306 24.4429 23.9077 24.362C23.6648 24.3374 23.2059 24.3374 23.2329 24.6581C23.3409 26.0734 24.1507 27.3831 23.6378 28.7993C23.4759 29.2533 23.125 29.3333 22.6931 29.4398C22.1273 29.6007 21.5594 29.7873 21.0466 30.0814C20.5337 30.3478 20.0208 30.6696 19.6699 31.1236C19.373 31.4976 19.1571 31.925 18.9411 32.3534C18.5093 33.3146 18.1584 34.3036 17.8345 35.2915C17.7265 35.6389 17.6185 36.0129 17.5106 36.3603C17.4836 36.4136 17.4026 36.8133 17.3486 36.8133C17.4296 36.8133 17.4836 34.5167 17.4836 34.3568C17.5106 33.7153 17.5645 33.0748 17.5915 32.4323C17.6185 31.925 17.6455 31.3911 17.8345 30.8828C18.1044 30.1613 18.5363 29.4942 18.9951 28.8793C19.2651 28.5319 19.7239 28.1045 19.8589 27.7038C19.9129 27.5163 19.9669 27.0633 19.7239 26.9557C19.535 26.8758 19.2931 27.009 19.1571 27.1156C18.7522 27.463 18.4013 27.917 18.0774 28.3443C17.6455 28.9326 17.2136 29.5475 16.8897 30.2146C16.5388 30.9361 16.4309 31.5776 16.3769 32.3523C16.2959 33.3946 16.1609 34.4358 16.08 35.5036C16.026 36.3859 15.918 37.3739 16.107 38.2562C16.2959 39.032 16.6738 39.7534 17.0787 40.3939C17.4026 40.9012 17.6725 41.223 18.1584 41.596C18.6172 41.9445 19.2111 42.0234 19.7779 42.1043C20.2368 42.1576 20.6687 42.13 21.1275 42.13C21.9103 42.13 22.6931 42.2099 23.4759 41.9967C24.3126 41.7825 25.2844 41.7569 26.0671 41.3819C25.9052 41.141 25.7162 40.9535 25.7432 40.6337C25.7702 40.3407 25.8242 40.0722 25.8782 39.7791C25.9862 39.032 26.0401 38.2562 26.0401 37.5081C26.0401 36.7067 25.7972 36.0375 25.6353 35.2904C25.5003 34.6756 25.3923 34.0617 25.3383 33.4468C25.3383 33.4468 25.3653 33.4212 25.3923 33.4212C25.5273 34.0617 25.6622 34.7032 25.8242 35.3437C26.0142 36.0652 26.2291 36.6811 26.2561 37.4548C26.2561 38.1763 26.1751 38.9254 26.0941 39.6725C26.0401 39.9123 25.9862 40.1798 25.9592 40.4472C25.9052 40.7946 25.9592 41.1154 26.2831 41.2486C26.607 41.3552 27.1738 41.2486 27.4977 41.1154C27.7137 41.0088 27.8756 40.9545 27.8486 40.5815C27.8216 40.3939 27.7946 40.2607 27.7407 40.0476C27.6867 39.8334 27.4707 39.6735 27.3358 39.486C27.2548 39.3794 27.2818 39.1386 27.2818 39.0053C27.3088 38.6846 27.3358 38.3638 27.3898 38.0441C27.4707 37.4292 27.5517 36.8143 27.7137 36.2271C28.0106 35.025 28.1995 33.7963 28.4155 32.5942C28.4964 32.0326 28.5774 31.5786 28.4695 31.018C28.3615 30.4575 28.2535 29.8959 28.0646 29.3343C27.9836 29.0668 27.9836 28.6938 28.1186 28.3987C28.1995 28.2121 28.4964 28.0512 28.6584 27.918C28.9283 27.6772 29.1713 27.464 29.4142 27.1966C29.6841 26.9291 29.5491 26.7426 29.5491 26.3941ZM27.2278 25.4062C27.4437 25.3253 27.9026 25.7803 27.9026 25.7803C27.7137 26.2076 27.3628 26.3142 26.9039 26.2343C26.661 26.2076 27.0389 25.4862 27.2278 25.4062Z" fill="#CCC2C2"/>
</svg>
